{"title":"Operation.Dumbo.Drop.1995.iNTERNAL.DVDRip.XviD-EXViDiNT","uid":7025526,"size":1475688737,"categoryP":"video","categoryS":"movies","magnet":"?xt=urn:btih:2db71eab5009658dc9adb0a3b96dee03ec39bd6c&amp;dn=Operation.Dumbo.Drop.1995.iNTERNAL.DVDRip.XviD-EXViDiNT&amp;tr=udp%3A%2F%2Ftracker.openbittorrent.com%3A80&amp;tr=udp%3A%2F%2Fopen.demonii.com%3A1337&amp;tr=udp%3A%2F%2Ftracker.coppersurfer.tk%3A6969&amp;tr=udp%3A%2F%2Fexodus.desync.com%3A6969","seeders":5,"leechers":3,"uploader":"TvTeam","files":8,"time":1328979329,"description":". \n &lt;a href=&quot;\nhttp://www.torrenting.com&quot; rel=&quot;nofollow&quot; target=&quot;_NEW&quot;&gt;\nhttp://www.torrenting.com&lt;/a&gt;          :     Once &amp; For all ;)\n\n\n               www . Torrenting . Com \n\n(((((((((((((= Enjoy No RAR releases =))))))))))))))))))))\n\n\n...................................NFO:....................................\n\n.                                                                                                     \n       \n     \n     \n       \n       \n     \n     \n                                         \n                                         \n                EXVID                    \n                                         \n         \n                                         \n         Filled the Archives             \n                                         \n         \n                                         \n                With:                    \n                                         \n         \n                                         \n                                    \n     E240                           \n                                    \n     SP               (C) 2009      \n                                         \n     \n     \n     \n                                                                                  \n                                                                                   \n          Operation.Dumbo.Drop.1995.iNTERNAL.DVDRip.XviD-EXViDiNT                   \n                                                                                   \n                                                                                  \n     \n                                                                                               \nEXViD aims to iNTERNAL those releases which have been lost in the archives.\nEXViD aims to PRE non-internal releases which have poor sources and are likely skipped by others. &lt;a href=&quot;\nhttp://www.imdb.com/title/tt0114048/&quot; rel=&quot;nofollow&quot; target=&quot;_NEW&quot;&gt;\nhttp://www.imdb.com/title/tt0114048/&lt;/a&gt;\nSubtitles: NL, EN, FR, IT\nDate: 2010.12\n\nDirector:\nSimon Wincer\n\nGenres:\nAction | Adventure | Comedy | Drama | Family | War\n\nPlot:\nDuring the Vietnam War, a village that American forces are using to spy on the Ho Chi Minh\nTrail has its sacred elephant killed by the North Vietnamese Army because they were\ncooperating with the Americans. The villagers need an elephant for a ceremony that will occur\nwithin the week. Captain Sam Cahill, an easygoing man who is heading home, and his hotheaded\nreplacement Captain TC Doyle scrounge up another elephant with the help of sneaky supply chief\nwarrant officer David Poole, luckless farmboy Lawrence Farley, and short-timer Harvey Ashford,\nand transport it across South Vietnam to get it to the village on time, running into all sorts\nof transport problems, personality conflicts, and an NVA squad that wants the Americans out of\nthe village.\n\nCast\nCredited cast:\nDanny Glover  ...  Capt. Sam Cahill  \nRay Liotta  ...  Capt. T.C. Doyle  \nDenis Leary  ...  Lt. David Poole  \nDoug E. Doug  ...  Sp4 Harvey (H.A.) Ashford  \nCorin Nemec  ...  Sp5 Lawrence Farley  \nDinh Thien Le  ...  Linh  \nTchky Karyo  ...  Goddard (as Tcheky Karyo)  \nHoang Ly  ...  Colonel Nguyen  \nVo Trung Anh  ...  Lt. Quang, NVA  \nMarshall Bell  ...  Colonel Pederson  \nJames Hong  ...  Y B'ham  \nLong Nguyen  ...  Jhon  \nTim Kelleher  ...  C-123 Pilot  \nScott N. Stevens  ...  C-123 Co-Pilot  \nKevin LaRosa  ...  Irish, Huey Pilot #1 (as Kevin Larosa)               \n\nStats:\nFormat                           : AVI\nFormat/Info                      : Audio Video Interleave\nFile size                        : 1.36 GiB\nDuration                         : 1h 43mn\nOverall bit rate                 : 1 883 Kbps\nWriting application              : VirtualDubMod 1.5.10.2 (build 2540/release)\nWriting library                  : VirtualDubMod build 2540/release\n\nVideo\nID                               : 0\nFormat                           : MPEG-4 Visual\nFormat profile                   : Advanced Simple@L5\nFormat settings, BVOP            : Yes\nFormat settings, QPel            : No\nFormat settings, GMC             : No warppoints\nFormat settings, Matrix          : Default (H.263)\nMuxing mode                      : Packed bitstream\nCodec ID                         : XVID\nCodec ID/Hint                    : XviD\nDuration                         : 1h 43mn\nBit rate                         : 1 490 Kbps\nWidth                            : 624 pixels\nHeight                           : 256 pixels\nDisplay aspect ratio             : 2.40:1\nFrame rate                       : 25.000 fps\nColor space                      : YUV\nChroma subsampling               : 4:2:0\nBit depth                        : 8 bits\nScan type                        : Progressive\nBits/(Pixel*Frame)               : 0.373\nStream size                      : 1.08 GiB (79%)\nWriting library                  : XviD 1.2.1 (UTC 2008-12-04)\n\nAudio\nID                               : 1\nFormat                           : AC-3\nFormat/Info                      : Audio Coding 3\nMode extension                   : CM (complete main)\nCodec ID                         : 2000\nDuration                         : 1h 43mn\nBit rate mode                    : Constant\nBit rate                         : 384 Kbps\nChannel(s)                       : 6 channels\nChannel positions                : Front: L C R, Side: L R, LFE\nSampling rate                    : 48.0 KHz\nBit depth                        : 16 bits\nStream size                      : 285 MiB (20%)\nAlignment                        : Split accross interleaves\nInterleave, duration             : 40 ms (1.00 video frame)\nInterleave, preload duration     : 500 ms\n\n\n\n\nRelease notes:\nThis movie is actually quite enjoyable.\n\nEnglish hardsubs for Vietnamese speaking parts.\n\nDanny Glover &amp; Ray Liotta ftw!\n\nEnjoy!\n\nLooking for:\n75TB+ Archives\nDUTCH/FLEMiSH Archives\n                                                                                                    \nGreets: CRBS EPiSODE FiCO FLS iLS KLASSiGER LiPSYNC MADE NODLABS RUNNER TNAN       \n   \n\n                                                                    ASCII DONE BY XX^NFO 2oo9","torrent":{"xt":"urn:btih:2db71eab5009658dc9adb0a3b96dee03ec39bd6c","amp;dn":"Operation.Dumbo.Drop.1995.iNTERNAL.DVDRip.XviD-EXViDiNT","amp;tr":["udp%3A%2F%2Ftracker.openbittorrent.com%3A80","udp%3A%2F%2Fopen.demonii.com%3A1337","udp%3A%2F%2Ftracker.coppersurfer.tk%3A6969","udp%3A%2F%2Fexodus.desync.com%3A6969"],"infoHash":"2db71eab5009658dc9adb0a3b96dee03ec39bd6c","infoHashBuffer":{"type":"Buffer","data":[45,183,30,171,80,9,101,141,201,173,176,163,185,109,238,3,236,57,189,108]},"announce":[],"urlList":[]}}